<?xml version="1.0" encoding="UTF-8"?>
<svg width="453px" height="161px" viewBox="0 0 453 161" version="1.1" xmlns="http://www.w3.org/2000/svg" xmlns:xlink="http://www.w3.org/1999/xlink">
    <!-- Generator: Sketch 52.6 (67491) - http://www.bohemiancoding.com/sketch -->
    <title>Full Stack Europe</title>
    <desc>Created with Sketch.</desc>
    <g id="Logo" stroke="none" stroke-width="1" fill="none" fill-rule="evenodd">
        <g transform="translate(-57.000000, -127.000000)" id="Group-2">
            <g transform="translate(57.000000, 114.000000)">
                <g id="icon" fill-rule="nonzero">
                    <g id="bottom" transform="translate(0.000000, 95.000000)">
                        <path d="M18.3772045,0.360190852 L65.5326769,0.360190852 C67.6704165,0.360190852 69.4033969,2.09317123 69.4033969,4.23091085 C69.4033969,5.25016798 69.0013705,6.22828991 68.2845928,6.95293803 L6.75576289,69.1573751 C5.25242879,70.6772163 2.80166097,70.690598 1.28181976,69.1872639 C0.376145283,68.291426 -0.0307648978,67.0073203 0.193679407,65.753368 L10.7568694,6.7376709 C11.4174619,3.04699366 14.6278738,0.360190852 18.3772045,0.360190852 Z" id="Mask" fill="#6859EA"></path>
                        <path d="M65.693448,0.363469107 C39.1741734,5.52209713 22.3931242,12.4266069 15.3503004,21.0769985 C11.8018242,25.4354362 9.05759745,27.4330585 7.11762015,27.0698653 L10.7568694,6.7376709 C11.4174619,3.04699366 14.6278738,0.360190852 18.3772045,0.360190852 L65.5326769,0.360190852 C65.5865312,0.360190852 65.6401287,0.361290682 65.693448,0.363469107 Z" id="Combined-Shape" fill="#5647D6"></path>
                    </g>
                    <path d="M37.6247605,7.96657377 L103.541411,8.0772198 C105.679147,8.08080816 107.409216,9.81669502 107.405628,11.9544316 C107.404703,12.5052597 107.286225,13.0495467 107.058109,13.5509205 L72.4705719,89.5707067 C71.2118403,92.3372668 68.450632,94.1112654 65.4111857,94.1061634 L22.2517984,94.0337172 C20.1140618,94.0301288 18.3839928,92.294242 18.3875811,90.1565053 C18.3879078,89.9619173 18.4029074,89.7676309 18.4324523,89.5752987 L29.9600793,14.5325949 C30.5410755,10.7504176 33.7982242,7.96015065 37.6247605,7.96657377 Z" id="top" fill="#6ACBE0" transform="translate(62.896605, 51.036369) scale(-1, 1) rotate(-99.000000) translate(-62.896605, -51.036369) "></path>
                </g>
                <path d="M352.075949,129 C347.216709,129 346,131.684211 346,138 L358,138 C358,132 356.936709,129 352.075949,129 Z M338,147.326693 L338,136.605578 C338,127.593625 342.590164,122 352.076503,122 C361.870383,122 366,127.438247 366,136.605578 L366,144.374502 L345.956284,144.374502 L345.956284,148.103586 C345.956284,150.900398 347.639344,153.85259 352.690055,153.85259 C356.974208,153.85259 358.961749,152.920319 362.480874,151.055777 L365.234973,157.115538 C361.409836,159.290837 358.045246,161 352.384044,161 C342.896175,160.844622 338,155.717131 338,147.326693 Z M310,133.046358 L310,150.10596 C311.566454,151.781457 314.071213,153 316.579106,153 C321.120255,153 323,150.562914 323,145.384106 L323,137.615894 C323,132.437086 321.120255,130 316.579106,130 C314.071213,130 311.721533,131.370861 310,133.046358 Z M310.368421,157.026706 L310.368421,174 L302,174 L302,122.617211 L308.63,122.617211 L309.735263,126.011869 C311.63,123.851632 315.261579,122 319.208947,122 C327.577368,122 332,127.554896 332,136.658754 L332,146.225519 C332,155.329377 327.736842,160.72997 319.524737,160.72997 C315.735263,160.72997 312.419474,158.878338 310.368421,157.026706 Z M280,161 C269.896316,161 265,155.406375 265,146.394422 L265,136.760956 C265,127.593625 269.736842,122 280,122 C290.263158,122 295,127.593625 295,136.760956 L295,146.394422 C294.842105,155.561753 290.105263,161 280,161 Z M279.499226,129 C274.701036,129 273,131.461538 273,136.692308 L273,145.307692 C273,150.538462 274.701036,153 279.499226,153 C284.298964,153 286,150.538462 286,145.307692 L286,136.692308 C286,131.461538 284.298964,129 279.499226,129 Z M249.307537,133.846154 L249.307537,160 L241,160 L241,122.615385 L247.895522,122.615385 L248.523955,127.538462 C250.091119,125.538462 253.537313,122 257.92694,122 C259.494104,122 261.216418,122.307692 262,122.769231 L260.432836,130.615385 C259.494104,130.307692 257.92694,130 256.514925,130 C253.380597,130 250.874701,131.846154 249.307537,133.846154 Z M223.78836,155.520325 C221.793651,157.528455 218.111111,160 213.202593,160 C205.222222,160 202,154.284553 202,146.869919 L202,122 L210.13381,122 L210.13381,145.170732 C210.13381,150.422764 212.280423,152.276423 215.962963,152.276423 C218.878307,152.276423 221.641746,150.577236 222.867725,149.186992 L222.867725,122 L231,122 L231,159.536585 L224.402116,159.536585 L223.78836,155.520325 Z M175.739884,139.361564 L175.739884,152.495114 L194,152.495114 L194,160 L167,160 L167,112 L194,112 L194,119.504886 L175.739884,119.504886 L175.739884,131.700326 L192.596936,131.700326 L192.596936,139.205212 L175.739884,139.205212 L175.739884,139.361564 Z M424,92 L424,41 L432.308108,41 L432.308108,68.5090909 L435.443243,68.5090909 L443.909676,54.4454545 L452.686486,54.4454545 L442.183784,71.4454545 L453,92 L444.064865,92 C444.064865,92 441.4,86.7454545 435.601568,75.3090909 L432.152919,75.3090909 L432.152919,92 L424,92 Z M399.29004,69.444 L399.29004,77.556 C399.29004,82.08 401.012178,85.668 406.486733,85.668 C409.145802,85.668 411.179208,85.044 413.838277,81.456 L419,85.98 C416.495782,89.88 412.585386,93 406.486733,93 C396.474554,93 391,87.228 391,78.18 L391,68.82 C391,59.772 396.161723,54 406.172337,54 C412.274119,54 416.184515,56.808 418.84202,60.864 L413.21105,65.388 C411.179208,62.424 408.987822,61.176 406.172337,61.176 C400.854198,61.488 399.29004,65.076 399.29004,69.444 Z M369.0985,86 C372.3985,86 374.95,84 376,81.8461538 L376,74 C370.2985,74 364,76 364,81.5384615 C364,84.4615385 366.25,86 369.0985,86 Z M384,67.4642857 L384,92.5357143 L377.295699,92.5357143 L376.516129,88.6666667 C375.114462,90.6785714 371.83871,93 366.849462,93 C360.302634,93 355,88.6666667 355,82.1666667 C355,71.6428571 366.069892,67.9285714 375.736559,67.9285714 L375.736559,66.2261905 C375.736559,63.4404762 374.177419,61.1190476 369.188172,61.1190476 C366.069892,61.1190476 362.483871,62.047619 358.897849,63.75 L356.404785,58.0238095 C360.456989,55.3928571 365.134409,54 369.5,54 C379.480054,54.3095238 384,59.1071429 384,67.4642857 Z M342.854931,93 C334.553226,93 331.265438,88.9266667 331.265438,81.5633333 L331.265438,61.3533333 L325,61.3533333 L325,54.7733333 L331.420507,54.3033333 L331.420507,46.94 L339.565576,46 L339.565576,54.1466667 L349.591843,54.1466667 L349.591843,61.04 L339.565576,61.04 L339.565576,80.9366667 C339.565576,83.9133333 340.663594,85.1666667 343.638111,85.1666667 C345.517742,85.1666667 347.554009,84.6966667 349.278571,84.2266667 L351,90.4933333 C348.025483,92.3733333 345.20447,93 342.854931,93 Z M305.382717,93 C297.964828,93 292.863484,90.5189873 289,87.8829114 L292.708945,81.6803797 C296.572429,83.6962025 300.746537,85.2468354 304.763015,85.2468354 C310.63551,85.2468354 312.799061,82.3006329 312.799061,79.0443038 C312.799061,67.7246835 290.390854,74.2373418 290.390854,57.4905063 C290.390854,48.3417722 296.726968,44 305.535711,44 C311.253668,44 316.044388,46.0158228 319.600338,48.4968354 L315.889848,54.8544304 C312.026364,52.8386076 308.782583,51.5981013 305.072093,51.5981013 C299.97384,51.5981013 298.58144,54.2341772 298.58144,57.1803797 C298.58144,66.3291139 320.989647,61.056962 320.989647,78.5791139 C321.298726,87.8829114 314.655079,93 305.382717,93 Z M257,92 L265,92 L265,41 L257,41 L257,92 Z M240,92 L248,92 L248,41 L240,41 L240,92 Z M223.78836,88.5203252 C221.793651,90.5284553 218.111111,93 213.202593,93 C205.222222,93 202,87.2845528 202,79.8699187 L202,55 L210.13381,55 L210.13381,78.1707317 C210.13381,83.4227642 212.280423,85.2764228 215.962963,85.2764228 C218.878307,85.2764228 221.641746,83.5772358 222.867725,82.1869919 L222.867725,55 L231,55 L231,92.5365854 L224.402116,92.5365854 L223.78836,88.5203252 Z M175.684211,72.2718447 L175.684211,92 L167,92 L167,44 L194,44 L194,51.4563107 L175.526316,51.4563107 L175.526316,64.5048544 L192.421053,64.5048544 L192.421053,71.961165 L175.684211,71.961165 L175.684211,72.2718447 Z" id="Fill-1" fill="#FFFFFF"></path>
            </g>
        </g>
    </g>
</svg>
