<?xml version="1.0" standalone="no"?>
<!DOCTYPE svg PUBLIC "-//W3C//DTD SVG 20010904//EN"
 "http://www.w3.org/TR/2001/REC-SVG-20010904/DTD/svg10.dtd">
<svg version="1.0" xmlns="http://www.w3.org/2000/svg"
 width="1224.000000pt" height="1224.000000pt" viewBox="0 0 1224.000000 1224.000000"
 preserveAspectRatio="xMidYMid meet">
<metadata>
Created by potrace 1.11, written by Peter Selinger 2001-2013
</metadata>
<g transform="translate(0.000000,1224.000000) scale(0.100000,-0.100000)"
fill="#000000" stroke="none">
<path d="M10180 12214 c-30 -8 -62 -16 -70 -18 -25 -8 -204 -56 -220 -60 -8
-3 -49 -14 -90 -26 -41 -11 -82 -23 -90 -25 -26 -6 -193 -53 -227 -64 -18 -5
-33 -8 -33 -5 0 2 -17 -3 -37 -10 -33 -13 -209 -62 -253 -71 -8 -2 -15 -4 -15
-5 0 -1 -9 -4 -20 -6 -34 -8 -50 -12 -50 -14 0 -1 -7 -3 -15 -5 -37 -8 -311
-85 -367 -103 -34 -11 -64 -17 -67 -15 -3 3 -11 1 -18 -3 -7 -5 -17 -9 -23
-10 -5 -1 -37 -10 -70 -19 -33 -9 -67 -18 -75 -19 -9 -1 -20 -5 -26 -8 -6 -4
-21 -9 -35 -12 -23 -5 -279 -73 -309 -83 -8 -2 -16 -4 -17 -5 -1 0 -40 -11
-85 -25 -46 -13 -94 -26 -108 -29 -14 -3 -34 -8 -45 -11 -11 -4 -23 -8 -27 -9
-5 -1 -9 -2 -10 -4 -2 -1 -10 -3 -18 -5 -28 -7 -196 -53 -290 -80 -30 -8 -67
-17 -82 -19 -14 -3 -36 -9 -47 -16 -12 -6 -21 -9 -21 -6 0 3 -16 -2 -35 -10
-19 -8 -35 -11 -35 -8 0 4 -7 1 -15 -6 -8 -7 -15 -10 -15 -7 0 3 -15 1 -32 -5
-43 -13 -97 -27 -127 -34 -14 -3 -28 -7 -33 -10 -4 -3 -16 -7 -25 -9 -10 -1
-61 -15 -113 -30 -52 -14 -117 -33 -145 -40 -27 -7 -93 -25 -145 -40 -52 -14
-106 -28 -119 -31 -13 -3 -31 -9 -40 -13 -9 -5 -29 -12 -46 -15 -16 -3 -64
-15 -105 -26 -104 -30 -222 -62 -240 -65 -8 -2 -15 -4 -15 -5 0 -1 -7 -3 -15
-5 -8 -2 -73 -20 -145 -40 -164 -47 -327 -91 -525 -144 -85 -23 -162 -45 -170
-48 -8 -3 -20 -7 -27 -9 -6 -1 -63 -16 -125 -34 -110 -31 -388 -108 -418 -115
-64 -16 -248 -67 -260 -72 -8 -3 -19 -7 -25 -8 -37 -9 -215 -58 -235 -65 -14
-5 -36 -12 -50 -14 -14 -3 -59 -15 -100 -26 -41 -12 -82 -23 -90 -25 -8 -2
-15 -4 -15 -5 0 -1 -7 -3 -16 -5 -43 -8 -199 -64 -209 -75 -3 -3 -24 -18 -48
-33 -153 -100 -247 -271 -277 -507 -2 -14 -4 -25 -5 -25 -1 0 -3 -16 -5 -35
-2 -19 -6 -48 -9 -65 -3 -16 -8 -48 -11 -70 -3 -22 -10 -62 -15 -90 -5 -27
-11 -70 -15 -95 -3 -25 -7 -55 -9 -66 -2 -12 -7 -37 -9 -55 -10 -63 -21 -134
-22 -139 -1 -3 -5 -30 -9 -60 -5 -30 -10 -64 -12 -75 -2 -11 -6 -38 -9 -60 -6
-43 -12 -77 -15 -85 -1 -3 -1 -15 0 -27 1 -13 -2 -23 -7 -23 -4 0 -8 -12 -8
-27 -1 -29 -11 -109 -20 -153 -4 -22 -8 -49 -20 -130 -3 -16 -7 -45 -10 -63
-3 -17 -7 -48 -10 -67 -2 -19 -10 -68 -18 -107 -8 -44 -10 -73 -4 -73 6 0 5
-5 -1 -12 -6 -7 -13 -31 -16 -53 -4 -23 -8 -50 -10 -60 -2 -11 -9 -56 -16
-100 -12 -83 -17 -116 -25 -162 -2 -16 -7 -50 -11 -78 -3 -27 -7 -52 -9 -55
-2 -3 -6 -30 -10 -60 -5 -30 -9 -64 -11 -75 -1 -11 -3 -20 -4 -20 -1 0 -3 -11
-5 -25 -5 -41 -14 -103 -19 -130 -7 -37 -16 -99 -21 -148 -3 -24 -7 -47 -9
-50 -2 -4 -7 -29 -10 -57 -4 -27 -9 -57 -11 -65 -2 -8 -6 -35 -9 -60 -3 -25
-7 -54 -10 -65 -2 -11 -7 -42 -10 -68 -4 -27 -10 -59 -12 -70 -3 -12 -7 -40
-9 -62 -4 -38 -10 -76 -19 -120 -11 -51 -20 -145 -19 -198 4 -138 119 -268
253 -285 19 -2 175 -5 345 -6 195 0 313 -5 317 -11 5 -7 8 -7 8 0 0 7 35 10
98 8 109 -4 100 -4 185 -2 34 1 67 0 72 -1 6 -1 15 -1 20 0 6 1 55 1 110 1 55
-1 114 -1 130 -1 17 1 35 1 40 1 6 0 465 -2 1020 -5 1892 -10 3340 -17 3403
-16 34 0 70 1 80 0 177 0 362 1 382 3 133 17 288 100 379 203 36 41 103 145
107 167 1 4 3 9 4 12 1 3 3 8 4 13 1 4 4 12 7 17 4 6 11 33 18 60 10 45 17 88
36 220 4 22 8 51 11 65 3 14 7 41 10 60 2 19 7 51 10 70 10 57 14 83 19 120 2
19 7 46 10 60 3 14 7 43 10 65 2 22 7 52 10 66 2 14 7 41 9 60 3 19 5 34 6 34
1 0 3 12 5 26 5 40 15 101 20 129 6 33 16 99 20 130 3 23 21 140 30 200 2 14
6 36 9 49 3 12 8 42 10 65 3 22 8 52 11 66 3 14 7 43 9 65 2 22 7 51 10 65 4
14 8 41 10 60 2 19 9 64 15 100 14 88 22 137 26 169 2 14 5 26 6 26 1 0 3 11
4 25 1 14 5 41 8 60 4 19 9 51 11 70 6 38 17 106 21 131 2 9 6 40 10 70 4 30
9 57 11 60 2 4 6 26 9 50 2 24 7 60 11 79 3 19 7 44 8 55 2 11 4 20 5 20 1 0
4 18 6 40 2 22 6 56 10 75 4 19 8 49 9 65 2 17 5 39 9 50 5 19 16 88 22 145 1
14 5 39 8 55 4 17 9 46 11 65 3 19 7 44 10 55 2 11 7 43 10 70 4 28 9 57 11
65 2 8 6 35 9 60 3 25 7 54 10 65 2 11 6 41 10 66 9 63 15 99 23 134 3 17 7
48 9 70 1 22 3 40 4 40 2 0 9 36 15 85 4 25 9 56 11 70 3 14 7 36 9 50 2 14 6
39 9 56 3 18 8 49 11 70 3 22 7 50 10 64 3 14 8 45 11 70 3 25 8 56 10 70 2
14 6 36 8 50 2 14 6 39 9 55 3 17 8 50 11 75 3 25 8 55 10 67 3 11 8 43 12 70
3 26 8 57 11 68 2 11 6 38 9 60 3 22 8 51 10 65 3 14 7 43 10 65 2 22 7 51 11
65 3 14 7 36 9 50 8 67 22 156 30 190 17 73 22 235 9 267 -4 10 -9 24 -11 31
-4 22 -55 91 -86 117 -73 62 -185 84 -288 59z"/>
<path d="M3008 5644 c-4 -3 -17 -7 -30 -9 -29 -5 -48 -10 -73 -20 -11 -4 -36
-14 -55 -22 -19 -8 -35 -13 -35 -11 0 2 -11 -7 -25 -19 -13 -13 -28 -23 -33
-23 -4 0 -14 -6 -21 -12 -7 -7 -28 -27 -47 -43 -98 -87 -168 -222 -194 -375
-6 -37 -52 -287 -60 -330 -3 -13 -7 -40 -10 -60 -3 -20 -8 -47 -10 -60 -3 -14
-8 -41 -11 -60 -3 -19 -7 -41 -9 -48 -3 -7 -7 -31 -10 -55 -7 -50 -13 -82 -15
-82 -1 0 -3 -9 -4 -20 -9 -59 -17 -112 -21 -125 -9 -31 -18 -86 -19 -112 0
-16 -5 -28 -9 -28 -5 0 -6 -3 -4 -7 3 -5 -4 -53 -14 -108 -11 -55 -21 -113
-23 -130 -3 -16 -7 -39 -9 -50 -6 -25 -19 -103 -23 -130 -1 -11 -3 -20 -4 -20
-1 0 -3 -11 -5 -25 -4 -36 -16 -103 -20 -120 -2 -8 -6 -28 -9 -45 -14 -84 -17
-101 -21 -115 -7 -27 -17 -94 -19 -122 0 -16 -3 -28 -6 -28 -3 0 -6 -8 -7 -17
0 -18 -9 -74 -19 -123 -11 -60 -15 -82 -38 -210 -14 -74 -27 -152 -30 -172 -3
-21 -11 -59 -16 -84 -6 -26 -8 -49 -6 -52 3 -2 1 -13 -4 -22 -5 -10 -13 -42
-16 -72 -3 -29 -8 -57 -11 -61 -3 -4 -7 -27 -9 -50 -3 -23 -9 -58 -14 -77 -5
-19 -12 -60 -16 -90 -3 -30 -8 -58 -10 -62 -3 -4 -7 -25 -10 -48 -3 -23 -7
-47 -8 -53 -6 -28 -16 -84 -20 -107 -2 -14 -7 -43 -11 -64 -5 -22 -9 -47 -10
-55 -1 -9 -4 -27 -8 -41 -6 -23 -11 -52 -22 -125 -3 -16 -7 -41 -10 -55 -3
-14 -8 -43 -11 -65 -3 -22 -8 -43 -10 -47 -2 -3 -7 -28 -10 -55 -3 -26 -10
-68 -15 -93 -6 -25 -13 -61 -15 -80 -2 -19 -6 -46 -9 -60 -3 -14 -8 -36 -10
-50 -3 -14 -9 -47 -15 -75 -13 -63 -22 -123 -22 -152 0 -13 -5 -23 -10 -23 -6
0 -8 -6 -5 -14 3 -8 2 -29 -3 -48 -8 -31 -16 -70 -26 -143 -3 -16 -7 -41 -9
-55 -2 -14 -4 -25 -5 -25 -2 0 -7 -24 -14 -70 -4 -23 -9 -52 -12 -65 -11 -52
-12 -153 -2 -183 20 -63 38 -93 79 -135 102 -105 256 -126 375 -50 27 16 208
191 402 387 194 196 599 605 900 909 301 304 710 718 910 920 199 201 362 370
362 374 0 4 4 8 9 8 5 0 36 28 70 63 60 62 258 262 1341 1357 1109 1121 1020
1028 1053 1099 25 57 29 74 25 135 -5 102 -45 176 -130 242 -24 19 -58 35 -58
28 0 -3 -7 0 -17 7 -13 12 -335 14 -1993 16 -1087 2 -1979 0 -1982 -3z"/>
</g>
</svg>
