<svg width="623" height="131" viewBox="0 0 623 131" fill="none" xmlns="http://www.w3.org/2000/svg">
<path d="M399.381 119.983C395.741 122.763 391.471 124.853 386.561 126.253C381.651 127.643 376.831 128.343 372.121 128.343C368.251 128.343 364.851 127.873 361.931 126.943C359.001 126.013 356.981 124.663 355.841 122.893C355.851 90.9126 355.871 58.9426 355.881 26.9626C355.881 25.6126 356.261 24.4226 357.021 23.3926C357.781 22.3626 359.571 21.7626 362.411 21.5726C362.411 21.3126 362.411 21.0526 362.411 20.7926C353.951 20.7026 345.501 20.6426 337.041 20.5926C337.041 20.8526 337.041 21.1126 337.041 21.3726C339.871 21.6026 341.671 22.2326 342.431 23.2726C343.191 24.3126 343.561 25.5126 343.561 26.8626C343.551 59.1326 343.541 91.3926 343.531 123.653C343.531 124.903 343.151 126.073 342.401 127.163C341.641 128.253 339.851 128.903 337.021 129.113C337.021 129.373 337.021 129.633 337.021 129.893C358.921 129.893 380.821 129.893 402.721 129.893C404.431 123.293 406.131 116.693 407.831 110.093C407.411 110.093 406.981 110.093 406.561 110.093C405.421 113.903 403.041 117.203 399.401 119.983H399.381Z" fill="black"/>
<path d="M430.982 126.943C430.252 125.893 429.882 124.773 429.882 123.583C429.902 102.713 429.922 81.8426 429.942 60.9726C429.942 57.2526 429.942 53.5326 429.952 49.8126C429.342 49.8026 428.722 49.7926 428.112 49.7826C425.792 53.6626 419.981 60.6326 408.161 60.6626C407.831 60.6626 407.501 60.6526 407.161 60.6526C407.271 61.0926 407.392 61.5326 407.502 61.9726C407.612 61.9726 407.722 61.9826 407.842 61.9926C413.562 62.4626 417.972 67.7826 417.972 74.0326C417.962 90.5426 417.942 107.053 417.922 123.563C417.922 124.763 417.552 125.883 416.822 126.933C416.082 127.983 414.352 128.603 411.602 128.803C411.602 129.053 411.602 129.303 411.602 129.553C419.802 129.553 428.002 129.553 436.192 129.553C436.192 129.303 436.192 129.053 436.192 128.803C433.442 128.603 431.702 127.983 430.972 126.933L430.982 126.943Z" fill="black"/>
<path d="M522.621 126.753C519.111 125.663 516.721 122.233 516.731 118.363C516.761 89.6226 516.801 60.8826 516.831 32.1426C516.831 30.8626 517.201 29.7526 517.951 28.8026C518.691 27.8526 520.461 27.3426 523.241 27.2626C523.241 27.0126 523.241 26.7726 523.241 26.5326C516.731 26.2526 510.231 25.9826 503.721 25.7226C503.721 25.9726 503.721 26.2126 503.721 26.4626C506.511 26.7726 508.271 27.4326 509.011 28.4426C509.751 29.4626 510.121 30.6026 510.121 31.8826C510.091 54.7726 510.071 77.6526 510.041 100.543C494.221 75.0426 478.411 49.0926 462.581 22.8626C458.871 22.7426 455.171 22.6326 451.461 22.5326C451.461 22.5426 451.481 22.5626 451.481 22.5726C450.151 22.5326 448.821 22.4926 447.491 22.4626C447.491 22.7126 447.491 22.9626 447.491 23.2126C450.281 23.4926 452.041 24.1426 452.781 25.1726C455.291 28.9726 457.801 32.7626 460.301 36.5526C476.881 64.1626 493.441 91.4526 510.011 118.233C510.011 120.053 510.011 121.863 510.011 123.683C510.011 124.863 509.641 125.973 508.891 127.003C508.141 128.043 506.381 128.653 503.591 128.853C503.591 129.103 503.591 129.343 503.591 129.593C511.381 129.593 519.171 129.593 526.961 129.593C526.961 128.893 526.961 128.193 526.961 127.493C524.541 127.373 522.691 126.793 522.691 126.793C522.661 126.793 522.631 126.773 522.601 126.763L522.621 126.753Z" fill="black"/>
<path d="M313.011 29.6326C305.551 24.4526 296.611 21.8726 286.171 21.9226C282.261 21.9926 278.341 22.0726 274.431 22.1526C272.751 22.1626 271.081 22.1726 269.401 22.1926C262.741 22.2526 256.071 22.3126 249.411 22.4026C249.411 22.6626 249.411 22.9126 249.411 23.1726C252.211 23.3526 253.971 23.9326 254.721 24.9526C255.471 25.9726 255.841 27.1426 255.841 28.4726C255.861 59.7026 255.871 90.9226 255.891 122.153C255.941 124.613 255.521 125.423 254.781 126.503C254.511 126.893 254.101 127.223 253.561 127.503C252.771 127.913 251.892 128.073 251.012 128.003C250.132 127.933 249.252 127.843 248.372 127.703C245.132 127.193 242.052 126.913 239.072 125.503C234.622 123.393 230.742 120.293 227.292 116.643C224.842 114.063 222.561 111.243 220.501 108.293C217.711 104.303 213.522 100.983 210.632 97.0126C209.922 96.0326 209.141 95.1126 208.331 94.2326C205.631 91.3226 199.711 85.2426 191.721 78.7426C191.321 78.4126 190.961 78.0426 190.861 77.6726C190.701 77.1926 190.632 76.6526 190.652 76.1426C190.712 74.6426 191.542 73.3926 192.992 73.4126C193.522 73.4126 194.071 73.5826 194.531 73.8726C194.641 73.9326 194.762 74.0026 194.872 74.0726C194.982 74.1426 195.102 74.2126 195.212 74.2826C196.752 75.2826 198.181 76.4026 199.731 77.4426C201.691 78.7726 203.821 79.9826 206.051 80.7726C209.561 82.0526 213.442 82.2126 217.072 81.3126C223.782 79.6826 230.122 75.5926 234.132 69.3426C236.522 65.3426 238.121 60.5826 238.831 55.7826C239.651 50.2326 238.932 44.3926 236.652 39.3726C234.582 34.7826 231.411 30.8926 227.811 27.7926C224.691 25.1826 220.922 23.4226 217.132 22.5426C211.152 21.1626 204.581 21.4226 198.161 22.6126C188.721 24.3726 179.202 25.4526 169.652 25.7226C169.152 25.7326 168.651 25.7526 168.161 25.7626C168.161 26.0126 168.161 26.2526 168.161 26.5026C170.911 26.6226 172.652 27.1726 173.382 28.1426C174.112 29.1126 174.481 30.2426 174.481 31.5326C174.511 62.3226 174.551 93.1226 174.581 123.913C174.581 125.103 174.221 126.223 173.481 127.263C172.751 128.303 171.012 128.923 168.262 129.123C168.262 129.373 168.262 129.623 168.262 129.863C176.462 129.863 184.662 129.863 192.852 129.863C192.852 129.613 192.852 129.363 192.852 129.113C190.102 128.913 188.362 128.293 187.632 127.253C186.902 126.203 186.531 125.093 186.531 123.893C186.501 93.3626 186.471 62.8326 186.441 32.3126C186.441 31.6126 186.572 30.9026 186.822 30.2426C187.462 28.5526 188.831 27.3026 190.481 26.9326C192.621 26.4426 194.781 26.0626 196.941 25.7826C205.931 24.6726 216.762 24.9526 223.852 31.6326C224.032 31.8126 224.202 31.9926 224.382 32.1726C224.552 32.3626 224.712 32.5526 224.882 32.7426C227.832 36.2926 229.812 40.7626 230.542 45.4326C231.562 51.8726 230.682 58.7426 228.042 64.6726C227.362 66.1326 226.421 67.4526 225.411 68.6826C221.741 73.1426 215.532 77.1026 209.962 77.1626C206.952 77.2326 203.841 76.2026 201.061 74.8026C199.441 74.0126 197.831 73.0526 196.191 72.2426C196.061 72.1826 195.922 72.1126 195.792 72.0526C195.652 71.9926 195.522 71.9326 195.382 71.8726C194.292 71.3826 193.021 71.2726 191.891 71.7226C189.451 72.6526 188.852 75.7726 189.742 78.1326C189.972 78.8026 190.491 79.3426 190.981 79.7726C191.131 79.9126 191.291 80.0426 191.441 80.1826C191.441 80.1826 199.311 85.6226 206.801 99.5126C208.981 103.343 210.922 107.343 213.492 110.913C216.102 114.523 219.002 117.843 222.462 120.483C224.522 122.053 226.772 123.353 228.992 124.663C232.182 126.543 235.651 127.623 239.161 128.453C241.371 128.973 241.232 128.903 245.852 129.583C248.792 130.063 249.761 130.083 252.271 130.053C259.671 129.993 267.081 129.933 274.481 129.873C278.251 129.873 282.021 129.873 285.791 129.873C296.401 129.873 305.451 127.363 312.951 122.333C320.441 117.313 326.081 110.693 329.851 102.493C333.621 94.2926 335.511 85.5326 335.511 76.2026C335.511 66.8726 333.631 58.0826 329.861 49.8126C326.091 41.5526 320.481 34.8126 313.021 29.6326H313.011ZM268.001 28.3426C268.001 27.5226 268.091 26.8626 268.281 26.3426C271.541 24.4726 277.501 23.5026 286.171 23.4626C294.091 23.5226 300.921 26.1326 306.651 31.2526C312.381 36.3826 316.711 43.0526 319.651 51.2626C322.581 59.4726 324.051 68.1426 324.051 77.2726C324.051 79.0026 323.991 80.7026 323.881 82.3826C323.711 84.9326 321.461 86.5826 319.211 85.9526C311.091 83.6826 303.871 88.4726 299.411 97.2926C296.391 102.763 294.341 108.923 290.471 113.553C285.881 118.743 279.471 120.763 273.051 122.563C270.561 123.263 268.141 121.193 268.141 118.373C268.091 88.3626 268.051 58.3626 268.001 28.3526V28.3426ZM306.721 121.173C300.951 125.943 293.921 128.333 285.641 128.333C283.221 128.333 280.071 128.513 276.541 128.333C274.311 128.223 272.361 128.023 270.711 127.623C270.331 127.533 270.301 126.893 270.681 126.793C275.901 125.483 280.591 123.983 285.041 121.673C287.741 120.253 290.361 118.503 292.651 116.193C299.981 109.063 304.921 92.0726 315.341 91.2526C316.661 91.1326 318.041 91.2526 319.471 91.5026C321.171 91.8026 322.281 93.6526 321.821 95.4826C321.231 97.8126 320.531 100.093 319.711 102.323C316.821 110.123 312.491 116.403 306.721 121.173Z" fill="black"/>
<path d="M589.521 69.2226C589.521 69.5926 589.521 69.9526 589.521 70.3226C591.671 70.3926 594.861 70.4426 598.601 71.1926C598.641 71.1926 598.671 71.2126 598.711 71.2126C602.841 72.0626 606.131 75.3626 606.991 79.5326C608.931 88.9626 610.871 98.3626 612.811 107.723C609.911 113.413 605.821 117.903 600.551 121.193C595.271 124.483 589.411 126.143 582.961 126.123C574.271 126.103 565.931 123.233 557.951 117.413C549.971 111.593 543.651 104.133 538.991 95.0426C534.331 85.9626 532.001 76.7626 532.011 67.5226C532.021 56.6226 535.301 47.6726 541.851 40.8126C548.391 33.9426 556.711 30.8126 566.791 31.3326C572.951 31.6526 579.061 33.4326 585.131 36.6226C591.191 39.8126 596.651 44.2526 601.501 49.8826C605.841 50.0926 610.181 50.3226 614.521 50.5426C609.851 43.8226 603.981 38.4426 596.891 34.4126C589.801 30.3926 582.391 28.1326 574.641 27.6926C561.111 26.9326 549.531 31.3426 539.901 41.0826C530.271 50.8126 525.451 62.8926 525.431 77.0826C525.411 91.2626 530.261 103.653 539.961 114.053C549.661 124.453 561.391 129.553 575.121 129.553C583.431 129.553 591.281 127.513 598.671 123.513C606.051 119.513 611.751 113.973 615.771 106.903C615.771 96.8726 615.771 86.8526 615.771 76.8226C615.771 74.8226 616.911 73.0526 618.691 72.2326C618.701 72.2326 618.711 72.2226 618.721 72.2126C619.851 71.6926 620.971 71.4526 622.101 71.4926V70.4126C611.241 69.9726 600.391 69.5626 589.531 69.1726L589.521 69.2226Z" fill="black"/>
<path d="M164.712 104.313C164.682 104.183 164.641 104.043 164.611 103.903C163.691 100.133 162.621 96.4126 161.421 92.7426C160.461 89.9726 159.501 87.2126 158.471 84.4826C157.531 81.9726 156.491 79.5026 155.521 77.0126C154.841 75.2626 154.231 73.4726 153.531 71.7326C153.021 70.4626 152.512 69.1826 151.992 67.9126C146.412 53.1126 140.822 38.3826 135.242 23.7626C131.092 23.9326 126.941 24.0926 122.791 24.2726C123.121 25.1126 123.461 25.9526 123.791 26.7926C117.881 44.4626 111.971 62.0226 106.071 79.4626C106.041 79.4626 106.022 79.4626 105.992 79.4626C104.132 79.4926 102.141 79.6726 100.291 79.8126C96.5315 80.1326 92.8115 80.0126 89.1115 79.3526C87.4715 79.0826 85.7315 78.7126 84.1415 78.1926C79.4615 76.6826 75.0815 74.2726 71.0015 71.4926C70.6615 71.2626 70.3315 71.0226 69.9915 70.7826L69.8815 70.5126C64.3015 56.1026 58.7115 41.8126 53.1415 27.6626C49.0015 27.8926 44.8615 28.1226 40.7315 28.3526C41.0615 29.1526 41.3915 29.9526 41.7215 30.7626C38.2215 40.8226 34.7115 50.8226 31.2115 60.7726C28.2915 61.8926 25.4615 63.3326 22.8015 64.9826C21.8715 65.5726 20.9615 66.1826 20.0815 66.8326C17.6615 68.3226 15.3615 70.0826 13.2215 72.0926C0.691501 83.8526 -2.9185 100.873 2.4715 115.533C3.7115 118.903 5.6315 121.993 8.0615 124.643C6.4115 127.153 3.8015 128.633 0.2615 129.063C0.2615 129.293 0.2615 129.533 0.2615 129.773C1.5615 129.773 2.8715 129.773 4.1715 129.773C4.1715 129.823 4.1715 129.863 4.1715 129.913C4.2015 129.863 4.2315 129.813 4.2615 129.773C8.4815 129.773 12.7015 129.773 16.9215 129.773C16.9215 129.583 16.9215 129.393 16.9215 129.203C15.0415 128.823 13.5115 128.163 12.3315 127.213C11.1515 126.263 10.5615 125.183 10.5615 123.943C10.5615 123.663 10.6515 123.233 10.8415 122.663C14.4615 112.643 18.0815 102.553 21.7015 92.3926C21.8915 91.9126 22.0815 91.4326 22.2615 90.9426C25.4515 82.0626 28.6415 73.1226 31.8215 64.1526C31.9015 64.1426 31.9815 64.1326 32.0615 64.1226H32.0415C32.0415 64.1226 32.0515 64.1226 32.0615 64.1226C32.0915 64.1226 32.1215 64.1226 32.1515 64.1226C32.5315 64.1126 32.9915 64.0926 33.3815 64.0926C42.3215 63.9126 51.0515 67.2826 57.7315 73.1326C58.2315 73.5926 58.6215 74.1626 58.8715 74.8026C60.8315 79.8526 62.7815 84.9226 64.7415 90.0126C64.9315 90.4926 65.1215 90.9826 65.3115 91.4726C69.0815 101.333 72.8615 111.243 76.6415 121.213C77.0215 122.103 77.2115 123.083 77.2115 124.163C77.2115 126.723 75.4215 128.393 71.8515 129.183V129.773C74.1515 129.773 76.4515 129.773 78.7515 129.773C78.7515 129.823 78.7715 129.873 78.7815 129.923C82.4315 129.923 86.0715 129.923 89.7215 129.923C92.7515 129.923 95.7815 129.923 98.8115 129.923V129.853C98.9715 129.853 99.1315 129.853 99.3015 129.853V129.773C99.3815 129.773 99.4615 129.773 99.5415 129.773C99.5415 129.523 99.5415 129.273 99.5415 129.023C98.5115 128.883 97.5615 128.683 96.7115 128.433C95.9515 128.093 95.2815 127.673 94.7015 127.183C93.5215 126.203 92.9215 125.053 92.9215 123.763C92.9215 123.463 93.0115 123.023 93.2015 122.423C96.4215 113.023 99.6315 103.573 102.852 94.1026C103.412 92.5026 103.972 90.8926 104.532 89.2926C105.042 87.8026 105.552 86.3126 106.062 84.8126C106.362 84.7826 106.661 84.7526 106.911 84.7326C112.411 84.3026 118.312 88.2826 122.312 92.0526C124.282 93.9226 126.101 95.9826 127.761 98.1826C133.281 106.743 137.772 116.903 144.882 123.273C145.402 123.733 145.901 124.203 146.411 124.683C146.411 124.683 150.711 129.453 157.981 129.763C160.391 129.923 164.771 128.163 166.271 120.353C166.991 116.813 166.251 113.343 165.891 109.873C165.701 108.003 165.142 106.173 164.712 104.333V104.313ZM9.3415 121.993L9.3115 121.973C8.1715 121.073 7.1715 120.003 6.3515 118.803C6.0115 118.303 5.7015 117.793 5.4215 117.253C5.2715 116.973 5.1315 116.683 5.0215 116.403C-1.5585 102.563 1.4815 85.3126 12.4115 74.0326C15.7715 70.5626 19.7315 67.9126 23.9715 66.0926C25.9115 65.4226 27.8915 64.8926 29.8915 64.4926C23.0415 83.8926 16.1915 103.063 9.3315 121.993H9.3415ZM33.2315 60.2526C36.3915 51.3226 39.5515 42.3526 42.7115 33.3326C46.2715 42.3626 49.8315 51.4626 53.4015 60.6126C46.8215 58.8726 39.9115 58.7026 33.2315 60.2526ZM103.132 88.1826C103.132 88.1826 103.121 88.2126 103.111 88.2326C102.551 89.8826 101.991 91.5326 101.431 93.1826C98.1715 102.763 94.9115 112.313 91.6515 121.823C91.4015 122.583 91.1015 123.283 90.7515 123.923C90.1615 122.973 89.6115 121.853 89.1015 120.553C84.2815 107.873 79.4515 95.2826 74.6315 82.7726C76.0615 83.3526 77.5215 83.8726 78.9915 84.3426C81.8315 85.2426 84.8415 85.8226 87.8215 86.0726C90.4715 86.3026 93.1615 86.3726 95.8415 86.1826C98.6415 85.9926 101.421 85.4526 104.191 85.0326C103.831 86.0826 103.481 87.1326 103.121 88.1826H103.132ZM156.182 120.383C156.162 120.443 156.152 120.503 156.132 120.563C155.262 123.403 152.081 124.553 149.751 122.933C144.931 119.593 141.482 114.633 137.852 109.173C136.232 106.753 134.601 104.163 132.891 101.563C132.441 100.753 132.001 99.9426 131.561 99.1226C131.431 98.8726 131.291 98.6226 131.161 98.3726C130.891 97.9226 130.552 97.3426 130.262 96.9026C125.862 89.9126 119.881 83.2626 112.271 80.4626C110.951 79.9926 109.501 79.6426 108.051 79.5126C108.001 79.5126 107.942 79.5126 107.882 79.5026C107.902 79.4426 107.921 79.3926 107.941 79.3326C108.161 78.6726 108.391 78.0226 108.611 77.3626C114.011 61.4926 119.421 45.5326 124.821 29.4826C132.251 48.9926 139.692 68.6726 147.122 88.5126C147.312 89.0126 147.501 89.5226 147.691 90.0226C150.231 96.8226 152.771 103.653 155.301 110.483C156.011 112.393 156.452 114.423 156.542 116.483C156.602 117.773 156.521 119.083 156.171 120.393L156.182 120.383Z" fill="black"/>
<path d="M457.591 67.0126C451.261 55.7026 445.671 43.1026 445.091 29.6026C445.011 25.7126 444.991 21.7826 445.941 18.0526C447.311 11.8026 444.991 4.88259 439.381 1.91259C434.131 -1.25741 426.351 0.322587 423.661 6.51259C422.741 8.37259 422.331 10.6426 422.061 12.6426C421.721 14.8626 421.381 17.0826 421.041 19.3026C420.881 20.0126 420.061 22.0426 415.911 23.9226C410.981 26.1526 409.491 31.6826 409.491 35.2926C409.731 35.3226 409.961 35.3526 410.201 35.3826C410.631 35.3826 411.061 35.3926 411.491 35.4026C411.491 35.4026 414.101 29.3326 420.621 30.0826C424.701 30.5526 426.501 32.3126 428.181 34.4526C429.711 36.3926 429.721 38.5326 429.721 38.5326C430.261 38.5426 430.801 38.5526 431.341 38.5626C431.341 38.5626 435.961 28.1526 429.131 22.6026C424.701 19.0026 424.831 17.3626 424.831 17.3626C425.051 15.0826 425.231 13.2526 425.231 13.2526C425.411 11.3226 425.551 9.61259 426.231 7.91259C428.161 2.81259 434.121 1.15259 438.741 3.44259C441.901 4.97259 444.351 8.29259 444.661 12.0326C445.211 15.9926 443.271 19.6126 442.821 23.4326C440.801 35.5926 441.811 48.1926 446.021 59.9126C447.391 63.6326 449.321 67.4526 451.121 70.9026C452.021 72.6926 452.961 74.4626 453.941 76.2126C453.921 92.1026 453.901 107.983 453.891 123.873C453.891 125.083 453.511 126.213 452.771 127.273C452.021 128.333 450.251 128.953 447.461 129.163C447.461 129.413 447.461 129.663 447.461 129.923C454.411 129.903 461.361 129.873 468.311 129.853C469.701 129.853 471.021 129.453 472.181 128.783C479.461 125.783 475.991 112.093 473.261 105.263C468.241 92.5326 464.101 79.1526 457.601 67.0326L457.591 67.0126ZM473.681 125.913C473.381 126.273 473.051 126.603 472.681 126.873C472.391 127.103 472.081 127.273 471.751 127.403C471.111 127.663 470.421 127.743 469.741 127.683C467.751 127.493 466.311 127.033 466.311 127.033C466.281 127.023 466.251 127.013 466.221 127.003C462.711 125.883 460.311 122.383 460.311 118.423C460.321 107.993 460.331 97.5726 460.351 87.1526C465.101 95.0526 469.821 102.953 473.101 111.623C474.761 116.123 476.061 122.513 473.681 125.903V125.913Z" fill="black"/>
</svg>
